<svg width="133" height="160" viewBox="0 0 133 160" fill="none" xmlns="http://www.w3.org/2000/svg">
<path fill-rule="evenodd" clip-rule="evenodd" d="M2 2C0.058 3.942 0 5.333 0 49.826V95.651L2.314 97.826L4.629 100H66.64H128.651L130.826 97.686C132.993 95.379 133 95.216 133 49.686C133 5.333 132.942 3.942 131 2C129.043 0.043 127.667 0 66.5 0C5.333 0 3.957 0.043 2 2ZM32 25.5C35.536 26.978 37 31.317 37 35.05C37 38.452 31.301 43.5 27.5 43.5C23.699 43.5 17 38.452 17 35.05C17 31.422 18.65 26.957 22 25.5C25.947 23.783 28.004 23.831 32 25.5ZM113.582 27.441C113.582 27.441 115.379 30.621 113 33C111.104 34.896 109.667 35 85.434 35C69.723 35 59.123 34.601 57.934 33.965C55.299 32.554 55.472 28.487 58.25 26.521C60.194 25.146 64.008 24.968 86.332 25.215C110.569 25.482 112.251 25.62 113.582 27.441ZM113 48C114.1 49.1 114 50.5 114 51C114 51.5 114.1 52.9 113 54C111.105 55.895 109.667 56 85.723 56C64.463 56 60.092 55.753 58.223 54.443C55.56 52.578 55.299 48.508 57.75 47.08C58.812 46.462 69.628 46.049 85.25 46.03C109.688 46.002 111.102 46.102 113 48ZM33.314 60.415C36.632 63.49 37.565 67.222 35.975 71.059C32.641 79.109 21.336 79.053 17.988 70.971C15.461 64.869 20.234 58 27 58C29.534 58 31.533 58.764 33.314 60.415ZM96.429 68.571C98.3 70.443 98.461 73.139 96.8 74.8C95.108 76.492 58.892 76.492 57.2 74.8C55.432 73.032 55.741 69.25 57.75 68.08C58.754 67.496 65.862 67.518 76 67.5C90.766 67.475 95.116 67.259 96.429 68.571ZM61.655 110.829C60.705 111.878 60 114.334 60 116.592C60 120.319 59.26 121.265 46 134.5C33.999 146.478 32 148.917 32 151.582C32 155.513 34.696 158 38.958 158C41.756 158 43.605 156.681 51.129 149.319L60 140.638V148.748C60 158.04 61.132 160 66.5 160C71.868 160 73 158.04 73 148.748V140.638L81.871 149.319C89.576 156.858 91.199 158 94.216 158C98.415 158 101 155.488 101 151.408C101 148.967 98.645 146.123 87 134.5C73.539 121.065 73 120.369 73 116.418C73 111.529 70.725 109 66.326 109C64.667 109 62.565 109.823 61.655 110.829Z" fill="black"/>
</svg>
