<?xml version="1.0" encoding="UTF-8"?>
<svg id="Layer_1" data-name="Layer 1" xmlns="http://www.w3.org/2000/svg" version="1.1" xmlns:xlink="http://www.w3.org/1999/xlink" viewBox="0 0 1280 1000">
  <defs>
    <style>
      .cls-1 {
        fill: #3b7fab;
      }

      .cls-1, .cls-2, .cls-3, .cls-4, .cls-5 {
        stroke-width: 0px;
      }

      .cls-2 {
        fill: #53b8da;
      }

      .cls-3 {
        fill: #479bc3;
      }

      .cls-6 {
        font-size: 30px;
      }

      .cls-6, .cls-7 {
        fill: #fff;
        font-family: Gantari-Black, Gantari;
        font-weight: 800;
      }

      .cls-4 {
        fill: #2f6294;
      }

      .cls-5 {
        fill: #23457d;
      }

      .cls-7 {
        font-size: 21px;
      }
    </style>
    <path id="path" d="M865.3,500c0,124.4-100.9,225.3-225.3,225.3s-225.3-100.9-225.3-225.3,100.9-225.3,225.3-225.3,225.3,100.9,225.3,225.3Z"/>
    <path id="path-2" d="M711.6,713.6c-118,39.5-245.7-24-285.2-142s24-245.7,142-285.2c118-39.5,245.7,24,285.2,142s-24,245.7-142,285.2Z"/>
    <path id="path-3" d="M455.5,629.2c-71.4-101.9-46.6-242.4,55.3-313.8,101.9-71.4,242.4-46.6,313.8,55.3,71.4,101.9,46.6,242.4-55.3,313.8-101.9,71.4-242.4,46.6-313.8-55.3Z"/>
    <path id="path-4" d="M456.3,369.7c72-101.5,212.6-125.4,314.1-53.4,101.5,72,125.4,212.6,53.4,314.1-72,101.5-212.6,125.4-314.1,53.4-101.5-72-125.4-212.6-53.4-314.1Z"/>
    <path id="path-5" d="M705.4,284.4c119.1,36.1,186.3,161.9,150.2,281s-161.9,186.3-281,150.2c-119.1-36.1-186.3-161.9-150.2-281,36.1-119.1,161.9-186.3,281-150.2Z"/>
  </defs>
  <g>
    <path class="cls-1" d="M895.8,429.9l-19.8,21.2-.2.2c-1.7,1.7-3.7,3-5.9,3.8-1.7.6-3.4.9-5.2.9s-2.1-.1-3.1-.3l-28.1-5.9c4.2,16.3,6.4,33.1,6.4,50.1,0,63.4-29.1,121.7-79.9,159.8-.9.7-1.4,1.8-1.4,2.9l2.1,34.2c0,1.1.7,2.1,1.6,2.7.2,0,.3.2.5.3l31.9,12.8c1.1.4,2.4.3,3.3-.4,44.5-33,77-77.2,94.1-127.9,16.6-49.4,17.9-102.7,3.6-154.4h.1Z"/>
    <path class="cls-3" d="M758.5,710.9c-.8-.3-1.7-.8-2.4-1.2-1.7-1.1-3.1-2.4-4.2-4-1.7-2.4-2.8-5.2-2.9-8.2l-1.8-28.8c-32,20.3-68.8,31.1-106.9,31.1s-81.5-12.7-115.3-36.7c-.6-.4-1.3-.6-2-.6s-.9,0-1.3.3l-33.2,14.1c-.3,0-.6.3-.9.5-.7.6-1.2,1.5-1.2,2.5l-1.1,32.7c0,1.2.5,2.2,1.4,2.9,45,32.1,97.1,49.4,150.4,50,52,.6,103.1-14.6,147.9-44l-26.4-10.6h0Z"/>
    <path class="cls-2" d="M440.3,500c0-20.2,3-40.2,9-59.3.4-1.2,0-2.5-.8-3.4l-25-25.7s-.1-.1-.2-.1c-.6-.6-1.5-.9-2.3-.9h-.8l-30.6,7.4c-1.2.3-2.1,1.2-2.5,2.3-16.5,52.6-16.9,107.4-1.1,158.3,15.4,49.6,45.6,93.4,87.3,126.9l.9-26c0-3.8,1.6-7.4,4.3-10.2.3-.4.7-.7,1.1-1,1.2-1,2.5-1.8,4-2.5l28.8-12.3c-45.9-38.1-72.1-93.9-72.1-153.6h0Z"/>
    <path class="cls-5" d="M655.9,266.4c0-.5-.2-.9-.4-1.3l-15.4-28.8c-.6-1.1-1.8-1.8-3-1.8-55.2.6-107.4,17.2-150.9,48.1-42.4,30.1-74.7,72.4-93.6,122.5l25.3-6.1h.3c1-.3,2-.3,3-.3,2.5,0,5,.6,7.2,1.8,1,.5,2,1.2,2.9,2,.4.3.6.6.8.8l22.5,23.1c14.1-35.6,38.1-66.3,69.4-88.7,33.1-23.8,72.3-36.7,113.2-37.3,1.3,0,2.4-.7,3-1.8l15.5-30.1c.3-.6.4-1.2.4-1.8l-.2-.3Z"/>
    <path class="cls-4" d="M891.2,414.7c-17.7-52.5-49.7-97-92.6-128.9-41.8-31.1-92.1-48.7-145.8-51.1l13.2,24.7c1,1.8,1.6,3.9,1.8,6.1v2c0,2.1-.7,4.2-1.6,6.1l-13.9,27c39.3,2.4,76.6,16.1,108.1,39.9,32,24.2,55.7,56.8,68.7,94.5.4,1.2,1.3,2,2.5,2.2l32.5,6.8c1.2.2,2.4-.2,3.2-1h0l23.2-24.9c.9-.9,1.2-2.2.8-3.4h-.1Z"/>
  </g>
  <text class="cls-6" transform="translate(-308.6 307.6)"><tspan x="0" y="0">Conexão de dados</tspan></text>
  <text>
    <textPath startOffset="21.6%" xlink:href="#path"><tspan class="cls-7"><tspan x="0" y="0">Conexão de dados</tspan></tspan>
    </textPath></text>
  <text>
    <textPath startOffset="21.6%" xlink:href="#path-2"><tspan class="cls-7"><tspan x="0" y="0">Iniciativa</tspan></tspan>
    </textPath></text>
  <text>
    <textPath startOffset="21.6%" xlink:href="#path-3"><tspan class="cls-7"><tspan x="0" y="0">Planejamento</tspan></tspan>
    </textPath></text>
  <text>
    <textPath startOffset="21.6%" xlink:href="#path-4"><tspan class="cls-7"><tspan x="0" y="0" xml:space="preserve"> Execução</tspan></tspan>
    </textPath></text>
  <text>
    <textPath startOffset="21.6%" xlink:href="#path-5"><tspan class="cls-7"><tspan x="0" y="0">Análise</tspan></tspan>
    </textPath></text>
</svg>