<?xml version="1.0" encoding="UTF-8"?>
<svg xmlns="http://www.w3.org/2000/svg" version="1.1" viewBox="0 0 136 123.1">
  <defs>
    <style>
      .cls-1 {
        fill: #e0e0e0;
      }
    </style>
  </defs>
  <!-- Generator: Adobe Illustrator 28.7.1, SVG Export Plug-In . SVG Version: 1.2.0 Build 142)  -->
  <g>
    <g id="Camada_1">
      <g id="Layer_1">
        <path class="cls-1" d="M14.5,22.7h90.1c-5.4,7.5-10.9,15-16.3,22.5-6.4,8.8-12.4,18-19.2,26.4-.9,1.1-1.9,2.2-2.6,3.4-3.3,5.6,1.3,13,7.7,13h48c4.7,0,8.8-4,8.8-8.8s-4.2-8.8-8.8-8.8h-30.5l36.4-50c1.5-1.6,2.5-4,2.5-6.7,0-5-3.1-8.8-7-8.8H14.5c-5.3,0-9.1,3.7-9.1,8.8-.1,5.1,3.7,9,9.1,9h0Z"/>
        <path class="cls-1" d="M121,103.5H30.9l36.4-49.9c1.7-1.6,2.9-4.4,2.9-6.9,0-3.6-2.1-6.8-5.1-8.2-1.1-.5-2.4-.6-3.7-.6h-30.7c0,.1-17.3.1-17.3.1-4.7,0-8.8,4-8.8,8.8s4.2,8.8,8.8,8.8h30.4c-4.4,6.1-8.9,12.3-13.3,18.4l-19.5,27c-2.6,3.6-6,6.4-6,11.2s3,8.8,7.2,8.8h108.7c5,0,9-3.9,9-8.8s-3.9-8.7-8.9-8.7h0Z"/>
      </g>
    </g>
  </g>
</svg>